<svg width="214" height="191" viewBox="0 0 214 191" fill="none" xmlns="http://www.w3.org/2000/svg">
<path d="M153.596 165.052C146.433 172.103 128.5 189.796 128.5 190.196C128.5 190.622 177.326 190.324 191.925 190.225C194.552 190.207 197.041 189.155 198.898 187.298L210.071 176.125C211.946 174.25 213 171.706 213 169.054V6.40239C213 2.6013 210.703 -0.0160768 206.902 0.00663509C203.974 0.0241349 200.027 0.075008 195.128 0.144369C192.786 0.177519 190.514 1.03821 188.749 2.57722C165.16 23.1464 172.464 21.0364 123.612 62.259C123.03 62.7497 122.962 63.6584 123.5 64.1963C129.198 70.3666 132.041 73.2914 139.701 79.2008C140.54 79.8476 141.573 80.1963 142.632 80.1963C143.834 80.1963 144.989 79.752 145.88 78.9446C152.122 73.2831 177.443 50.3409 178 50.1963C178.541 50.056 180.746 49.7286 182.583 50.6146C183.235 50.9288 183.747 51.4692 184.137 52.0782C184.745 53.027 184.966 53.8451 185 55.1963V152.196C185 157.719 180.523 162.196 175 162.196H160.589C157.968 162.196 155.464 163.214 153.596 165.052Z" fill="#CCCCCC"/>
<path d="M1 0H18.6972C18.8946 0 19.0877 0.0584379 19.2519 0.16795L20.4407 0.960457C20.4802 0.986786 20.5178 1.0159 20.5531 1.04756L120.858 90.8728C120.952 90.9568 121.029 91.0579 121.085 91.1705L122.326 93.6521C122.438 93.8759 122.462 94.1335 122.393 94.374L121.577 97.2294C121.527 97.4063 121.428 97.5659 121.293 97.6906L109 109L83.5 132L22.6563 187.358C22.5532 187.452 22.4317 187.523 22.2995 187.567L19.8475 188.384C19.6231 188.459 19.3795 188.452 19.1599 188.364L17.1687 187.567C17.0571 187.523 16.9545 187.458 16.8658 187.377L5.5 177L4.01946 175.519C4.01446 175.517 4.008 175.511 4 175.5L4.01946 175.519C4.15535 175.586 3.22996 172.735 3.5 171C3.76683 169.286 5.79553 167.206 5.98571 167.014C5.99621 167.004 6.00552 166.995 6.01657 166.985L81 99L83.9064 95.6784C84.2437 95.2929 84.2352 94.7148 83.8866 94.3394L78 88L54 66L38 52L32.2867 46.7628C32.1023 46.5938 31.8612 46.5 31.611 46.5H29C28.4477 46.5 28 46.9477 28 47.5V54V76.5858C28 76.851 27.8946 77.1054 27.7071 77.2929L1.70711 103.293C1.07714 103.923 0 103.477 0 102.586V1C0 0.447715 0.447715 0 1 0Z" fill="#CCCCCC"/>
</svg>
